<?xml version="1.0" encoding="UTF-8" standalone="no"?>
<!-- Created with Inkscape (http://www.inkscape.org/) -->

<svg
   xmlns:dc="http://purl.org/dc/elements/1.1/"
   xmlns:cc="http://creativecommons.org/ns#"
   xmlns:rdf="http://www.w3.org/1999/02/22-rdf-syntax-ns#"
   xmlns:svg="http://www.w3.org/2000/svg"
   xmlns="http://www.w3.org/2000/svg"
   xmlns:sodipodi="http://sodipodi.sourceforge.net/DTD/sodipodi-0.dtd"
   xmlns:inkscape="http://www.inkscape.org/namespaces/inkscape"
   width="100.44434mm"
   height="158.70003mm"
   viewBox="0 0 100.44434 158.70003"
   version="1.1"
   id="svg903"
   sodipodi:docname="coq.svg"
   inkscape:version="0.92.2 5c3e80d, 2017-08-06">
  <defs
     id="defs897" />
  <sodipodi:namedview
     id="base"
     pagecolor="#ffffff"
     bordercolor="#666666"
     borderopacity="1.0"
     inkscape:pageopacity="0.0"
     inkscape:pageshadow="2"
     inkscape:zoom="0.49497475"
     inkscape:cx="482.4087"
     inkscape:cy="208.3579"
     inkscape:document-units="mm"
     inkscape:current-layer="layer1"
     showgrid="false"
     inkscape:window-width="1440"
     inkscape:window-height="775"
     inkscape:window-x="0"
     inkscape:window-y="1"
     inkscape:window-maximized="1"
     fit-margin-top="0"
     fit-margin-left="0"
     fit-margin-right="0"
     fit-margin-bottom="0" />
  <metadata
     id="metadata900">
    <rdf:RDF>
      <cc:Work
         rdf:about="">
        <dc:format>image/svg+xml</dc:format>
        <dc:type
           rdf:resource="http://purl.org/dc/dcmitype/StillImage" />
        <dc:title></dc:title>
      </cc:Work>
    </rdf:RDF>
  </metadata>
  <g
     inkscape:label="Layer 1"
     inkscape:groupmode="layer"
     id="layer1"
     transform="translate(-66.338568,-80.822634)">
    <path
       style="fill:#eeeeee;fill-opacity:1;stroke-width:12.89402008"
       d="m 84.298539,233.78319 c 0,-5.28911 0.138752,-5.62913 4.31059,-10.56311 5.415598,-6.40496 6.978489,-9.68514 6.978489,-14.64636 0,-6.16569 -3.808371,-10.43882 -14.086411,-15.80545 -9.125417,-4.76479 -12.163327,-7.05256 -11.780364,-8.87148 0.137086,-0.65111 3.537677,-3.21519 7.556867,-5.69795 9.099191,-5.62083 12.367526,-10.00595 14.456756,-19.39664 2.028624,-9.11827 1.368178,-15.5717 -2.093796,-20.45916 -1.455456,-2.05475 -2.916481,-4.85853 -3.246723,-6.23062 -0.585396,-2.43222 -0.711612,-2.48231 -5.038583,-1.99951 l -4.438146,0.4952 3.68198,-3.32112 3.681979,-3.32112 -2.754903,-0.55098 c -4.352223,-0.87044 -9.88396,-7.25141 -11.135842,-12.84541 -3.074937,-13.740266 10.26964,-27.548271 26.684293,-27.610985 10.691055,-0.04085 20.781765,6.287043 24.168995,15.156387 2.31259,6.055418 1.44141,15.885388 -2.00941,22.673238 -2.42868,4.77728 -7.81669,10.77965 -9.67633,10.77965 -1.44293,0 -2.52927,-2.24288 -3.15454,-6.51293 -0.9633,-6.57855 -2.02993,-8.55029 -1.64418,-3.03937 0.18388,2.62688 0.53861,9.27007 0.78829,14.76264 0.44388,9.7646 3.13796,24.73433 4.73966,26.33602 0.49442,0.49443 1.17877,-0.66152 1.77377,-2.9961 3.89896,-15.29845 7.69646,-22.23408 15.39069,-28.10906 4.87189,-3.71996 9.69452,-5.12052 15.56228,-4.5195 14.39272,1.47421 23.80247,12.32443 23.76887,27.40747 -0.0278,12.48799 -4.43585,23.3435 -12.83775,31.61505 -8.84119,8.70404 -15.21951,11.64072 -28.66519,13.19795 -4.51473,0.52287 -4.58865,0.49547 -3.60756,-1.3377 l 1.00161,-1.87153 -2.75156,1.61787 c -1.9145,1.12568 -2.33604,1.70328 -1.38568,1.89863 1.6709,0.34354 1.76289,-0.20923 -0.80874,4.85965 -3.41061,6.72262 -3.03652,12.03047 1.30622,18.53378 3.10807,4.65438 3.47356,5.76125 3.47356,10.51964 v 5.31794 H 103.40314 84.298539 Z m 49.154641,-48.86107 c 1.21823,-4.85383 -2.58256,-9.98596 -5.34767,-7.22085 -1.25959,1.25958 -1.26103,1.67131 -0.0163,4.65038 1.76289,4.21918 1.70005,5.61883 -0.37113,8.26669 -2.9968,3.83118 -1.80809,4.02929 1.72431,0.28737 1.87972,-1.99122 3.68457,-4.68383 4.01079,-5.98359 z"
       id="path3556"
       inkscape:connector-curvature="0" />
    <path
       style="fill:#eeeeee;fill-opacity:1;stroke-width:12.89402008"
       d="m 82.292331,233.13673 c 0,-6.23938 0.102894,-6.49944 4.494409,-11.36286 4.980666,-5.51585 8.257681,-11.32278 8.290027,-15.37315 l 0.02128,-1.25536 10.436873,-0.0799 12.21523,-0.1426 -1.05577,3.4514 c -1.52979,5.001 -0.34045,9.68221 3.74702,15.04119 2.07369,2.71875 2.46713,4.26099 2.46713,9.67089 v 6.43632 H 102.60044 82.292362 Z"
       id="path3554"
       inkscape:connector-curvature="0"
       sodipodi:nodetypes="ssccccssscccs" />
    <path
       style="fill:#eeeeee;fill-opacity:1;stroke-width:12.89402008"
       d="m 108.05678,132.35637 c -0.40257,-0.65137 -1.05222,-3.54446 -1.44367,-6.42908 -0.87923,-6.47907 -2.4403,-8.13024 -7.791204,-8.24092 -3.210511,-0.0664 -5.533281,0.74607 -10.098381,3.5323 -7.638063,4.66176 -10.763544,4.69592 -15.770561,0.17239 -11.885853,-10.73816 -7.11673,-30.041033 9.215684,-37.300186 10.722872,-4.765918 19.942082,-4.332686 29.513592,1.386915 6.42835,3.841353 11.08137,11.027432 12.02365,18.569191 1.05492,8.44326 -3.28215,20.38195 -9.75618,26.85599 -2.85447,2.85447 -4.73966,3.31942 -5.89293,1.4534 z"
       id="path3552"
       inkscape:connector-curvature="0" />
  </g>
</svg>
