<?xml version="1.0" encoding="UTF-8" standalone="no"?>
<svg
   xmlns:dc="http://purl.org/dc/elements/1.1/"
   xmlns:cc="http://creativecommons.org/ns#"
   xmlns:rdf="http://www.w3.org/1999/02/22-rdf-syntax-ns#"
   xmlns:svg="http://www.w3.org/2000/svg"
   xmlns="http://www.w3.org/2000/svg"
   xmlns:sodipodi="http://sodipodi.sourceforge.net/DTD/sodipodi-0.dtd"
   xmlns:inkscape="http://www.inkscape.org/namespaces/inkscape"
   height="60px"
   version="1.1"
   viewBox="0 0 60 60"
   width="60px"
   id="svg3773"
   sodipodi:docname="github.svg"
   inkscape:version="0.92.2 5c3e80d, 2017-08-06">
  <metadata
     id="metadata3777">
    <rdf:RDF>
      <cc:Work
         rdf:about="">
        <dc:format>image/svg+xml</dc:format>
        <dc:type
           rdf:resource="http://purl.org/dc/dcmitype/StillImage" />
        <dc:title></dc:title>
      </cc:Work>
    </rdf:RDF>
  </metadata>
  <sodipodi:namedview
     pagecolor="#ffffff"
     bordercolor="#666666"
     borderopacity="1"
     objecttolerance="10"
     gridtolerance="10"
     guidetolerance="10"
     inkscape:pageopacity="0"
     inkscape:pageshadow="2"
     inkscape:window-width="740"
     inkscape:window-height="480"
     id="namedview3775"
     showgrid="false"
     inkscape:zoom="3.9333333"
     inkscape:cx="30"
     inkscape:cy="30"
     inkscape:window-x="0"
     inkscape:window-y="0"
     inkscape:window-maximized="0"
     inkscape:current-layer="svg3773" />
  <desc
     id="desc3762" />
  <defs
     id="defs3764" />
  <g
     style="fill:none;fill-rule:evenodd;stroke:none;stroke-width:1"
     id="slices"
     transform="translate(-900,-500)" />
  <g
     id="g4343">
    <g
       style="fill:#790089;fill-rule:evenodd;stroke:none;stroke-width:1;fill-opacity:1"
       transform="translate(-900,-500)"
       id="hexagon-flat">
      <polygon
         style="fill:#790089;fill-opacity:1"
         points="904.01924,545 904.01924,515 930,500 955.98076,515 955.98076,545 930,560 "
         id="Polygon-59" />
    </g>
  </g>
  <g
     id="icon"
     transform="translate(-891,-488)"
     style="fill:#ffffff;fill-rule:evenodd;stroke:none;stroke-width:1">
    <path
       d="m 916.42527,535.51689 c 0,-0.44972 -0.0159,-1.63966 -0.0249,-3.22006 -5.13516,1.14346 -6.21864,-2.53793 -6.21864,-2.53793 -0.8398,-2.18699 -2.05021,-2.76918 -2.05021,-2.76918 -1.67621,-1.17484 0.12694,-1.15044 0.12694,-1.15044 1.85301,0.13364 2.82768,1.9511 2.82768,1.9511 1.64674,2.89235 4.32029,2.058 5.37316,1.57342 0.16774,-1.22364 0.64487,-2.058 1.17188,-2.53096 -4.09929,-0.4776 -8.40938,-2.10216 -8.40938,-9.35571 0,-2.06614 0.71967,-3.75577 1.90061,-5.07935 -0.18927,-0.47877 -0.82394,-2.40314 0.18133,-5.00963 0,0 1.55041,-0.50898 5.07623,1.94064 1.47221,-0.41951 3.05208,-0.631 4.62289,-0.63797 1.56741,0.007 3.14616,0.21846 4.62176,0.63797 3.52356,-2.44962 5.0717,-1.94064 5.0717,-1.94064 1.00754,2.60533 0.374,4.5297 0.1836,5.00963 1.18321,1.32358 1.89721,3.01321 1.89721,5.07935 0,7.27214 -4.31689,8.8723 -8.42978,9.3406 0.66414,0.58452 1.25347,1.7396 1.25347,3.50593 0,2.53096 -0.0238,4.57269 -0.0238,5.19323 0,0.50666 0.33321,1.09466 1.27048,0.90989 7.32931,-2.50772 12.61407,-9.59859 12.61407,-17.95842 0,-10.45502 -8.26658,-18.9299 -18.46211,-18.9299 -10.19439,0 -18.46097,8.47488 -18.46097,18.9299 10e-4,8.36216 5.29043,15.45767 12.62654,17.96074 0.92254,0.17315 1.26027,-0.41136 1.26027,-0.91221 z"
       id="github"
       inkscape:connector-curvature="0" />
  </g>
</svg>
