<?xml version="1.0" encoding="UTF-8" standalone="no"?>
<svg
   xmlns:dc="http://purl.org/dc/elements/1.1/"
   xmlns:cc="http://creativecommons.org/ns#"
   xmlns:rdf="http://www.w3.org/1999/02/22-rdf-syntax-ns#"
   xmlns:svg="http://www.w3.org/2000/svg"
   xmlns="http://www.w3.org/2000/svg"
   xmlns:sodipodi="http://sodipodi.sourceforge.net/DTD/sodipodi-0.dtd"
   xmlns:inkscape="http://www.inkscape.org/namespaces/inkscape"
   id="svg"
   version="1.1"
   width="51.960938"
   height="59.994152"
   viewBox="0 0 51.960938 59.994152"
   style="display:block"
   sodipodi:docname="researchgate.svg"
   inkscape:version="0.92.2 5c3e80d, 2017-08-06">
  <metadata
     id="metadata845">
    <rdf:RDF>
      <cc:Work
         rdf:about="">
        <dc:format>image/svg+xml</dc:format>
        <dc:type
           rdf:resource="http://purl.org/dc/dcmitype/StillImage" />
        <dc:title></dc:title>
      </cc:Work>
    </rdf:RDF>
  </metadata>
  <defs
     id="defs843" />
  <sodipodi:namedview
     pagecolor="#ffffff"
     bordercolor="#666666"
     borderopacity="1"
     objecttolerance="10"
     gridtolerance="10"
     guidetolerance="10"
     inkscape:pageopacity="0"
     inkscape:pageshadow="2"
     inkscape:window-width="1263"
     inkscape:window-height="637"
     id="namedview841"
     showgrid="false"
     inkscape:zoom="5.62"
     inkscape:cx="24.17265"
     inkscape:cy="32.352957"
     inkscape:window-x="0"
     inkscape:window-y="0"
     inkscape:window-maximized="0"
     inkscape:current-layer="svg"
     fit-margin-top="0"
     fit-margin-left="0"
     fit-margin-right="0"
     fit-margin-bottom="0" />
  <path
     style="fill:#04d4ac;fill-rule:evenodd;stroke:none;stroke-width:0.15665771"
     d="M 25.974606,1.0954338e-5 0,14.996105 v 30 l 25.976566,14.998047 c 0.003,5e-6 0.005,-5e-6 0.008,0 l 25.97637,-14.998047 v -30 L 25.988286,1.0954338e-5 c -0.005,3.74e-5 -0.009,-3.78e-5 -0.0137,0 z M 34.767576,14.437511 c 0.18729,0.0099 0.51057,0.04164 1.07422,0.101563 0.4482,0.04778 0.62027,0.09318 0.72461,0.191406 0.0754,0.07065 0.197,0.128906 0.26953,0.128906 0.19316,0 0.33008,0.06477 0.33008,0.15625 0,0.04418 0.0979,0.09838 0.21875,0.121094 0.13426,0.02522 0.31835,0.137731 0.47266,0.289063 0.13895,0.136136 0.28061,0.248046 0.31445,0.248046 0.034,0 0.0883,0.07009 0.12109,0.15625 0.0328,0.08616 0.1002,0.15625 0.15039,0.15625 0.0503,0 0.10893,0.05803 0.13086,0.126954 0.0219,0.06893 0.0626,0.125 0.0899,0.125 0.099,0 0.50586,0.587283 0.50586,0.730468 0,0.08334 0.0383,0.146485 0.0879,0.146485 0.0959,0 0.16406,0.131623 0.16406,0.318359 0,0.06611 0.0544,0.175525 0.12305,0.244141 0.15588,0.155874 0.24561,0.908435 0.13281,1.11914 -0.0708,0.132219 -0.1066,0.134766 -1.23438,0.134766 -1.26438,0 -1.40429,-0.02875 -1.40429,-0.302735 0,-0.107936 -0.0593,-0.226264 -0.15625,-0.310546 -0.0891,-0.07755 -0.15625,-0.205471 -0.15625,-0.294922 0,-0.09697 -0.0367,-0.15625 -0.0937,-0.15625 -0.0511,0 -0.10924,-0.07009 -0.13086,-0.15625 -0.0216,-0.08616 -0.0802,-0.15625 -0.12891,-0.15625 -0.0487,0 -0.12083,-0.07204 -0.16016,-0.158203 -0.0497,-0.109034 -0.12032,-0.15625 -0.23437,-0.15625 -0.0902,0 -0.21242,-0.05607 -0.27148,-0.125 -0.0978,-0.114203 -0.18466,-0.125 -0.97657,-0.125 -0.77452,0 -0.88736,0.0133 -1.02929,0.125 -0.0877,0.06893 -0.20104,0.125 -0.25196,0.125 -0.0509,0 -0.13891,0.07009 -0.19531,0.15625 -0.0566,0.08616 -0.14439,0.158203 -0.19531,0.158203 -0.0509,0 -0.0918,0.02757 -0.0918,0.0625 0,0.03509 -0.0985,0.110475 -0.21875,0.167968 -0.12031,0.05734 -0.23394,0.150322 -0.25195,0.207032 -0.0179,0.05655 -0.0886,0.165351 -0.15821,0.240234 -0.0967,0.10355 -0.14004,0.269664 -0.17968,0.699219 -0.0291,0.315039 -0.0899,0.609379 -0.13867,0.667969 -0.14178,0.170913 -0.12684,5.248065 0.0156,5.361328 0.0602,0.04762 0.11737,0.216914 0.13867,0.412109 0.021,0.192376 0.0898,0.399676 0.16406,0.494141 0.0704,0.08945 0.12696,0.212811 0.12696,0.273437 0,0.06517 0.0635,0.125253 0.15625,0.148438 0.0862,0.02162 0.1582,0.08174 0.1582,0.132812 0,0.0517 0.0555,0.09375 0.12695,0.09375 0.0705,0 0.199,0.07009 0.28516,0.15625 0.0862,0.08616 0.19262,0.15625 0.23633,0.15625 0.0435,0 0.13894,0.05607 0.21289,0.125 0.11843,0.110287 0.22271,0.125 0.85937,0.125 0.63979,0 0.73675,-0.01408 0.84766,-0.125 0.0776,-0.07755 0.20988,-0.125 0.3457,-0.125 0.15478,0 0.21875,-0.02834 0.21875,-0.0957 0,-0.05248 0.0701,-0.121556 0.15625,-0.154297 0.0862,-0.03274 0.15625,-0.08555 0.15625,-0.117187 0,-0.08366 0.35261,-0.447266 0.4336,-0.447266 0.0379,0 0.0684,-0.07002 0.0684,-0.154297 0,-0.08444 0.0677,-0.225315 0.15039,-0.314453 0.15697,-0.169504 0.27076,-1.301116 0.21484,-2.132812 l -0.0215,-0.3125 -1.15625,-0.01758 c -1.50517,-0.0224 -1.38928,0.08813 -1.36719,-1.292969 l 0.0176,-1.070313 2.625,-0.01758 c 1.88537,-0.01175 2.64741,0.0036 2.70898,0.05469 0.20067,0.166527 0.10087,4.443359 -0.10351,4.443359 -0.0241,0 -0.0584,0.154194 -0.0781,0.34375 -0.0216,0.209608 -0.0871,0.409505 -0.16601,0.509766 -0.0714,0.09086 -0.13086,0.214534 -0.13086,0.273437 0,0.0589 -0.0561,0.158354 -0.125,0.220703 -0.0689,0.06235 -0.125,0.145913 -0.125,0.185547 0,0.09164 -0.40298,0.535156 -0.48633,0.535156 -0.0345,0 -0.0789,0.05731 -0.0977,0.128907 -0.0186,0.07144 -0.0926,0.145419 -0.16406,0.164062 -0.0717,0.0188 -0.13023,0.0663 -0.13086,0.105469 -7.8e-4,0.03901 -0.10078,0.154418 -0.22266,0.257812 -0.12204,0.103394 -0.2823,0.252533 -0.35547,0.330078 -0.0789,0.0835 -0.2062,0.140625 -0.31445,0.140626 -0.13003,0 -0.19134,0.03539 -0.21484,0.125 -0.023,0.08835 -0.10456,0.137117 -0.27344,0.164062 -0.13222,0.02115 -0.28892,0.09155 -0.34766,0.15625 -0.0771,0.08522 -0.19237,0.119141 -0.41796,0.119141 -0.20835,0 -0.38369,0.04399 -0.52735,0.132812 -0.28355,0.1753 -1.61875,0.154694 -1.80078,-0.02734 -0.0738,-0.07379 -0.2101,-0.105468 -0.44336,-0.105468 -0.25786,0 -0.35695,-0.02742 -0.41992,-0.117188 -0.0455,-0.06501 -0.19743,-0.137357 -0.34375,-0.162109 -0.18,-0.03039 -0.27673,-0.08197 -0.30273,-0.164063 -0.024,-0.07535 -0.0957,-0.121094 -0.19141,-0.121093 -0.0849,0 -0.2134,-0.06915 -0.28906,-0.15625 -0.0749,-0.08616 -0.15852,-0.15625 -0.1875,-0.15625 -0.0793,0 -0.74024,-0.666042 -0.74024,-0.746094 0,-0.03822 -0.0414,-0.06836 -0.0918,-0.06836 -0.0504,0 -0.12388,-0.05942 -0.16211,-0.130859 -0.0383,-0.07159 -0.1232,-0.183734 -0.18946,-0.25 -0.0664,-0.06642 -0.12109,-0.190483 -0.12109,-0.275391 0,-0.09023 -0.0517,-0.183492 -0.125,-0.222656 -0.0799,-0.04277 -0.125,-0.129707 -0.125,-0.242187 0,-0.101514 -0.0661,-0.248576 -0.15625,-0.345703 -0.14522,-0.156814 -0.15625,-0.214745 -0.15625,-0.792969 0,-0.342767 -0.0254,-0.623047 -0.0566,-0.623047 -0.23561,0 -0.30966,-5.162432 -0.0781,-5.458984 0.0824,-0.105745 0.12472,-0.292928 0.14649,-0.638672 0.0257,-0.408876 0.0535,-0.505186 0.16601,-0.583985 0.0859,-0.06016 0.13477,-0.161021 0.13477,-0.279297 0,-0.107467 0.0521,-0.228666 0.125,-0.291015 0.0689,-0.05906 0.125,-0.171515 0.125,-0.25 0,-0.07849 0.0547,-0.197249 0.12109,-0.263672 0.0663,-0.06627 0.15108,-0.180361 0.18946,-0.251953 0.0382,-0.07144 0.11165,-0.128907 0.16211,-0.128906 0.0504,0 0.0918,-0.04306 0.0918,-0.0957 0,-0.05248 0.0701,-0.123509 0.15625,-0.15625 0.0862,-0.03274 0.15625,-0.101815 0.15625,-0.154296 0,-0.05264 0.0279,-0.0957 0.0605,-0.0957 0.0328,0 0.13545,-0.07009 0.22851,-0.15625 0.0928,-0.08616 0.23783,-0.15625 0.32227,-0.15625 0.0998,0 0.16456,-0.04284 0.18555,-0.123046 0.0177,-0.06768 0.0876,-0.142288 0.15625,-0.164063 0.0686,-0.02178 0.17866,-0.09272 0.24414,-0.158203 0.0713,-0.07128 0.20637,-0.119141 0.33594,-0.119141 0.13927,0 0.26151,-0.04673 0.33984,-0.130859 0.10308,-0.110443 0.22009,-0.136408 0.75586,-0.166016 0.34888,-0.01911 0.65003,-0.06148 0.66992,-0.09375 0.018,-0.02914 0.0705,-0.04118 0.25781,-0.03125 z m -18.72851,5.707032 c 1.59221,0.0014 3.06034,0.01135 3.3789,0.03125 0.43348,0.02726 0.66054,0.06876 0.69532,0.125 0.0345,0.05593 0.26506,0.09829 0.69336,0.126953 0.50114,0.03368 0.65882,0.0658 0.7207,0.15039 0.0567,0.07755 0.16778,0.109375 0.39258,0.109375 0.21917,0 0.36291,0.03711 0.47461,0.125 0.088,0.06924 0.2867,0.144397 0.44335,0.166016 0.15713,0.02146 0.33415,0.08976 0.39258,0.154297 0.0584,0.06454 0.17113,0.117187 0.25196,0.117187 0.0808,0 0.20255,0.05803 0.27148,0.126953 0.0689,0.06893 0.14992,0.125 0.17969,0.125 0.0627,0 0.45742,0.292641 0.72656,0.539063 0.20757,0.190183 0.43094,0.478375 0.55078,0.71289 0.0439,0.08554 0.12915,0.204685 0.18945,0.265626 0.0603,0.06078 0.10938,0.175421 0.10938,0.253906 0,0.07849 0.0515,0.187514 0.11523,0.242187 0.0697,0.05969 0.13283,0.228017 0.15821,0.419922 0.0272,0.204282 0.0815,0.340368 0.15039,0.378906 0.17169,0.09603 0.16427,3.065208 -0.008,3.25586 -0.0644,0.07112 -0.13253,0.25826 -0.1504,0.416015 -0.0191,0.169973 -0.075,0.318164 -0.13867,0.363282 -0.0591,0.04183 -0.12837,0.181305 -0.15234,0.310546 -0.0241,0.129244 -0.0698,0.236329 -0.10352,0.236329 -0.0335,0 -0.0942,0.0771 -0.13476,0.171875 -0.19301,0.450391 -1.45937,1.75132 -1.76563,1.814453 -0.10214,0.02099 -0.19386,0.08686 -0.21093,0.152343 -0.0166,0.0636 -0.0649,0.117188 -0.10743,0.117188 -0.0426,0 -0.15319,0.07009 -0.24609,0.15625 -0.0931,0.08616 -0.24079,0.15625 -0.32617,0.15625 -0.0855,0 -0.17167,0.04236 -0.19141,0.09375 -0.0197,0.05138 -0.14503,0.125755 -0.27929,0.166016 -0.27587,0.08256 -0.3408,0.311024 -0.12305,0.427734 0.0663,0.0354 0.13728,0.147932 0.16015,0.251953 0.0229,0.10402 0.0959,0.218502 0.16211,0.253906 0.0661,0.03541 0.1211,0.120525 0.1211,0.189453 0,0.06877 0.0424,0.140419 0.0937,0.160157 0.0514,0.01974 0.12575,0.146994 0.16601,0.28125 0.0401,0.134412 0.11066,0.24414 0.15625,0.24414 0.0455,0 0.10007,0.06869 0.1211,0.152344 0.021,0.0835 0.0924,0.200079 0.1582,0.259766 0.0658,0.05953 0.11914,0.155554 0.11914,0.21289 0,0.05734 0.0701,0.165353 0.15625,0.240235 0.0871,0.07567 0.15625,0.204153 0.15625,0.289062 0,0.09791 0.0467,0.167982 0.12695,0.19336 0.0689,0.02193 0.125,0.08267 0.125,0.136718 0,0.05405 0.0701,0.164246 0.15625,0.244141 0.0862,0.0799 0.15625,0.199515 0.15625,0.265625 0,0.06627 0.11316,0.243826 0.25196,0.394531 0.1388,0.150861 0.26885,0.337531 0.28906,0.416016 0.0202,0.07833 0.0912,0.172253 0.15625,0.207031 0.0651,0.03478 0.11719,0.117871 0.11719,0.185547 0,0.06768 0.0278,0.123047 0.0605,0.123047 0.0611,0 0.50391,0.633288 0.50391,0.720703 0,0.02695 0.0631,0.112378 0.14062,0.189453 0.2549,0.253629 0.42383,0.478521 0.42383,0.566406 0,0.04747 0.0561,0.115529 0.125,0.152344 0.0689,0.03681 0.125,0.105816 0.125,0.152344 0,0.04653 0.0701,0.131104 0.15625,0.1875 0.0862,0.05655 0.15625,0.144398 0.15625,0.195312 0,0.05091 0.044,0.0918 0.0957,0.0918 0.0517,0 0.0937,0.02493 0.0937,0.05469 0,0.02992 0.18923,0.25343 0.42187,0.496093 0.23264,0.242819 0.5672,0.591318 0.74219,0.775391 0.17514,0.184073 0.46601,0.462097 0.64648,0.617188 0.18047,0.155091 0.39673,0.34433 0.48243,0.421875 0.0858,0.07755 0.17961,0.142578 0.20703,0.142578 0.0275,0 0.11393,0.05607 0.19336,0.125 0.0795,0.06893 0.20706,0.125 0.2832,0.125 0.0762,0 0.20682,0.05131 0.28906,0.115234 0.0974,0.07582 0.29608,0.128615 0.57227,0.150391 0.49174,0.03854 0.61172,0.114374 0.60937,0.384765 -0.002,0.283551 -0.29354,0.547182 -0.67187,0.609375 -0.76527,0.125953 -3.54601,0.03782 -3.64063,-0.115234 -0.0229,-0.03713 -0.15511,-0.08799 -0.29297,-0.111328 -0.39822,-0.06768 -0.46875,-0.09584 -0.46875,-0.191406 0,-0.06063 -0.0713,-0.08984 -0.21875,-0.08984 -0.16323,0 -0.24339,-0.03891 -0.32031,-0.15625 -0.0586,-0.08945 -0.16245,-0.15625 -0.24219,-0.15625 -0.0767,0 -0.21569,-0.06504 -0.30859,-0.142578 -0.35342,-0.295143 -1.73047,-1.675159 -1.73047,-1.734375 0,-0.03399 -0.0566,-0.09225 -0.125,-0.128906 -0.0686,-0.03681 -0.14283,-0.142491 -0.16602,-0.236329 -0.0232,-0.09368 -0.0948,-0.208788 -0.1582,-0.253906 -0.0633,-0.04496 -0.11523,-0.121358 -0.11523,-0.169922 0,-0.04841 -0.0561,-0.117482 -0.125,-0.154297 -0.0689,-0.03681 -0.125,-0.09795 -0.125,-0.134765 0,-0.03697 -0.0701,-0.151453 -0.15625,-0.253907 -0.0862,-0.102454 -0.15625,-0.223547 -0.15625,-0.271484 0,-0.04778 -0.058,-0.117482 -0.12696,-0.154297 -0.0689,-0.03681 -0.125,-0.09881 -0.125,-0.136719 0,-0.03791 -0.0701,-0.134947 -0.15625,-0.214843 -0.088,-0.08162 -0.15625,-0.214923 -0.15625,-0.304688 0,-0.101201 -0.035,-0.158203 -0.0957,-0.158203 -0.0524,0 -0.12046,-0.06557 -0.15039,-0.144531 -0.0301,-0.07896 -0.0973,-0.178635 -0.15039,-0.222656 -0.0529,-0.04402 -0.1151,-0.161698 -0.13672,-0.259766 -0.0215,-0.09822 -0.0783,-0.192296 -0.12695,-0.210937 -0.0483,-0.01864 -0.13229,-0.126658 -0.18555,-0.240235 -0.14162,-0.300783 -0.29882,-0.556534 -0.42383,-0.6875 -0.0603,-0.06329 -0.10937,-0.184623 -0.10937,-0.269531 0,-0.0871 -0.0524,-0.181235 -0.11914,-0.216797 -0.065,-0.03478 -0.13619,-0.14272 -0.16016,-0.238281 -0.0241,-0.09572 -0.098,-0.223433 -0.16406,-0.285156 -0.0662,-0.06157 -0.12109,-0.150196 -0.12109,-0.195313 0,-0.04496 -0.0561,-0.132962 -0.125,-0.195313 -0.0689,-0.06235 -0.12501,-0.173476 -0.125,-0.248046 0,-0.07457 -0.0701,-0.196602 -0.15626,-0.271485 -0.088,-0.07661 -0.1582,-0.203913 -0.1582,-0.291015 0,-0.0907 -0.0515,-0.183336 -0.125,-0.222657 -0.0689,-0.03681 -0.125,-0.106203 -0.125,-0.154297 0,-0.04825 -0.0561,-0.10502 -0.125,-0.126953 -0.0689,-0.02193 -0.125,-0.07863 -0.125,-0.125 0,-0.0495 -0.10396,-0.102044 -0.25195,-0.126953 -0.13849,-0.0235 -0.29829,-0.08946 -0.35547,-0.146484 -0.10919,-0.109348 -2.08079,-0.197887 -2.43359,-0.109375 l -0.1543,0.03906 v 3.681641 c 3.1e-4,3.566783 0.004,3.684994 0.125,3.867188 0.0685,0.103394 0.12484,0.266236 0.125,0.361328 3.1e-4,0.1106 0.0597,0.222265 0.16797,0.3125 0.0928,0.07723 0.23424,0.204645 0.31445,0.28125 0.13018,0.1247 0.235,0.143886 0.98633,0.18164 0.99148,0.04966 0.96606,0.03666 1.06836,0.476563 0.0733,0.315665 0.0687,0.361641 -0.0449,0.541015 l -0.12305,0.195313 h -4.12695 c -3.23279,0 -4.13662,-0.01671 -4.17578,-0.07813 -0.0276,-0.04308 -0.10686,-0.108416 -0.17579,-0.146484 -0.22606,-0.124387 -0.20356,-0.500935 0.0449,-0.742188 0.20835,-0.202402 0.21622,-0.204026 1.00781,-0.248047 0.81947,-0.04559 1.15137,-0.158305 1.31445,-0.449219 0.0276,-0.04903 0.088,-0.08984 0.13281,-0.08984 0.0587,0 0.093,-0.177085 0.12305,-0.636719 0.0231,-0.351226 0.0766,-0.679085 0.11914,-0.730469 0.12298,-0.148042 0.14562,-15.70835 0.0234,-16.072265 -0.0486,-0.144752 -0.10986,-0.496677 -0.13477,-0.783204 -0.0473,-0.544542 -0.16249,-0.760847 -0.46093,-0.855468 -0.0669,-0.02131 -0.15739,-0.08058 -0.19922,-0.13086 -0.0579,-0.06987 -0.23477,-0.09164 -0.74219,-0.0918 -0.98005,-4.7e-4 -1.22983,-0.209145 -1.11328,-0.927734 0.0497,-0.306266 0.1437,-0.361916 0.67383,-0.40625 0.26413,-0.02225 0.49054,-0.07657 0.55273,-0.132813 0.0803,-0.07285 0.30216,-0.10035 0.94727,-0.115234 0.81603,-0.01896 2.53279,-0.0268 4.125,-0.02539 z m 1.32226,1.287109 c -0.54019,-0.0013 -1.0696,0.03032 -1.16015,0.09961 -0.067,0.05107 -0.23519,0.125525 -0.37305,0.164063 -0.13786,0.03854 -0.2715,0.1031 -0.29688,0.142578 -0.11358,0.17718 -0.0531,8.359309 0.0625,8.474609 0.0758,0.07582 0.11901,0.245843 0.14063,0.552735 l 0.0312,0.443359 0.20703,0.01953 c 0.11405,0.01097 0.22324,0.06002 0.24219,0.109375 0.0432,0.112637 2.75177,0.135293 2.78906,0.02344 0.0266,-0.08021 0.43779,-0.179605 0.74609,-0.181641 0.14428,-0.0011 0.26716,-0.04674 0.33985,-0.126953 0.0623,-0.06893 0.18749,-0.125 0.2793,-0.125 0.0999,0 0.22111,-0.06437 0.30273,-0.158203 0.0749,-0.08616 0.19091,-0.15625 0.25781,-0.15625 0.16182,0 1.07031,-0.89849 1.07031,-1.058594 0,-0.06815 0.0516,-0.16207 0.11524,-0.207031 0.0637,-0.04512 0.13635,-0.186151 0.16015,-0.314453 0.0239,-0.128303 0.0911,-0.259058 0.14844,-0.291016 0.0747,-0.04183 0.1154,-0.184324 0.14453,-0.503906 0.0254,-0.276814 0.0803,-0.489738 0.14453,-0.560547 0.16872,-0.186579 0.14947,-2.160727 -0.0234,-2.421875 -0.0802,-0.121097 -0.12485,-0.294109 -0.125,-0.486328 -3.2e-4,-0.220104 -0.0327,-0.327295 -0.125,-0.40625 -0.0687,-0.0589 -0.14346,-0.206402 -0.16602,-0.328125 -0.0228,-0.121723 -0.0945,-0.257618 -0.1582,-0.302734 -0.0636,-0.04496 -0.11524,-0.14815 -0.11524,-0.228516 0,-0.08648 -0.0634,-0.187263 -0.15625,-0.248047 -0.0862,-0.05655 -0.15625,-0.144398 -0.15625,-0.195313 0,-0.05091 -0.0305,-0.0918 -0.0683,-0.0918 -0.0802,0 -0.4336,-0.362754 -0.4336,-0.445313 0,-0.03086 -0.0409,-0.05664 -0.0918,-0.05664 -0.0509,0 -0.13876,-0.07009 -0.19531,-0.15625 -0.0697,-0.106371 -0.15984,-0.156249 -0.28125,-0.15625 -0.11436,0 -0.20317,-0.04463 -0.24609,-0.125 -0.0392,-0.07332 -0.13047,-0.125 -0.22071,-0.125 -0.0849,0 -0.20484,-0.05054 -0.26562,-0.111328 -0.0696,-0.06956 -0.29582,-0.137536 -0.61133,-0.183593 -0.27525,-0.04011 -0.58411,-0.117828 -0.6875,-0.171875 -0.13363,-0.06971 -0.68441,-0.104149 -1.22461,-0.105469 z"
     id="path4"
     inkscape:connector-curvature="0" />
  <g
     style="fill:none;fill-rule:evenodd;stroke:none;stroke-width:1"
     transform="translate(-637.40237,-11.765015)"
     id="slices" />
</svg>
